<?xml version="1.0" encoding="UTF-8" standalone="no" ?>
<!DOCTYPE svg PUBLIC "-//W3C//DTD SVG 1.1//EN" "http://www.w3.org/Graphics/SVG/1.1/DTD/svg11.dtd">
<svg xmlns="http://www.w3.org/2000/svg" xmlns:xlink="http://www.w3.org/1999/xlink" version="1.1" width="1080" height="1080" viewBox="0 0 1080 1080" xml:space="preserve">
<desc>Created with Fabric.js 5.2.4</desc>
<defs>
</defs>
<rect x="0" y="0" width="100%" height="100%" fill="transparent"></rect>
<g transform="matrix(1 0 0 1 540 540)" id="3be761d0-e046-4abd-9b68-59664a892327"  >
</g>
<g transform="matrix(1 0 0 1 540 540)" id="85405c27-cf86-403c-94d3-b3914cac27b2"  >
<rect style="stroke: none; stroke-width: 1; stroke-dasharray: none; stroke-linecap: butt; stroke-dashoffset: 0; stroke-linejoin: miter; stroke-miterlimit: 4; fill: rgb(255,255,255); fill-rule: nonzero; opacity: 1; visibility: hidden;" vector-effect="non-scaling-stroke"  x="-540" y="-540" rx="0" ry="0" width="1080" height="1080" />
</g>
<g transform="matrix(0.19 0 0 0.19 540 540)"  >
<path style="stroke: rgb(192,202,245); stroke-width: 0; stroke-dasharray: none; stroke-linecap: butt; stroke-dashoffset: 0; stroke-linejoin: miter; stroke-miterlimit: 4; fill: rgb(192,202,245); fill-rule: nonzero; opacity: 1;" vector-effect="non-scaling-stroke"  transform=" translate(-3130, -3130)" d="M 0 3130 L 0 0 L 3130 0 L 6260 0 L 6260 3130 L 6260 6260 L 3130 6260 L 0 6260 L 0 3130 z M 3124 4740 C 3133 4685 3131 4660 3118 4655 C 3111 4653 3036 4632 2951 4609 C 2863 4585 2788 4558 2778 4548 C 2761 4531 2760 4486 2760 3664 L 2760 2797 L 2806 2710 C 2866 2597 2935 2504 3036 2404 L 3117 2323 L 3088 2284 C 3024 2200 2892 1977 2815 1825 C 2692 1582 2520 1128 2455 875 C 2445 837 2433 801 2428 795 C 2424 790 2420 1083 2420 1447 L 2420 2107 L 2465 2124 C 2596 2174 2613 2337 2496 2424 C 2457 2454 2353 2454 2314 2424 C 2253 2379 2228 2318 2241 2246 C 2251 2192 2278 2159 2338 2130 L 2390 2105 L 2390 1445 C 2390 1083 2386 790 2382 795 C 2377 801 2368 830 2361 860 C 2339 952 2224 1291 2156 1464 C 2042 1754 1888 2049 1743 2254 L 1694 2324 L 1775 2404 C 1881 2510 1950 2603 2010 2723 L 2060 2822 L 2059 3593 C 2058 4425 2055 4535 2028 4554 C 2019 4560 1943 4585 1858 4609 C 1774 4633 1699 4657 1693 4662 C 1685 4668 1680 4695 1680 4724 L 1680 4775 L 2399 4775 L 3118 4775 L 3124 4740 z M 4826 4754 C 4829 4743 4830 4716 4828 4695 L 4825 4656 L 4675 4615 C 4402 4540 4426 4561 3796 3855 C 3609 3646 3446 3463 3432 3448 L 3407 3421 L 3442 3373 C 3461 3347 3539 3233 3616 3120 C 3692 3007 3804 2842 3865 2753 C 3925 2663 4081 2434 4210 2243 C 4455 1881 4533 1784 4609 1745 C 4634 1733 4717 1703 4793 1680 L 4930 1637 L 4930 1578 L 4930 1520 L 4391 1520 L 3852 1520 L 3809 1597 C 3735 1733 3617 1919 3207 2544 L 2808 3152 L 2833 3179 C 2926 3280 3779 4221 3836 4285 C 3963 4430 4000 4486 4000 4540 C 4000 4581 3967 4600 3841 4630 C 3762 4648 3740 4657 3740 4670 C 3740 4680 3737 4707 3734 4731 L 3728 4775 L 4274 4775 C 4821 4775 4821 4775 4826 4754 z" stroke-linecap="round" />
</g>
<g transform="matrix(0 0 0 0 0 0)"  >
<g style=""   >
</g>
</g>
<g transform="matrix(0 0 0 0 0 0)"  >
<g style=""   >
</g>
</g>
<g transform="matrix(NaN NaN NaN NaN 0 0)"  >
<g style=""   >
</g>
</g>
<g transform="matrix(NaN NaN NaN NaN 0 0)"  >
<g style=""   >
</g>
</g>
</svg>