<?xml version="1.0" standalone="no"?>
<!DOCTYPE svg PUBLIC "-//W3C//DTD SVG 20010904//EN"
 "http://www.w3.org/TR/2001/REC-SVG-20010904/DTD/svg10.dtd">
<svg version="1.0" xmlns="http://www.w3.org/2000/svg"
 width="626.000000pt" height="626.000000pt" viewBox="0 0 626.000000 626.000000"
 preserveAspectRatio="xMidYMid meet">

<g transform="translate(0.000000,626.000000) scale(0.100000,-0.100000)"
fill="#000000" stroke="none">
<path d="M0 3130 l0 -3130 3130 0 3130 0 0 3130 0 3130 -3130 0 -3130 0 0
-3130z m3124 1610 c9 -55 7 -80 -6 -85 -7 -2 -82 -23 -167 -46 -88 -24 -163
-51 -173 -61 -17 -17 -18 -62 -18 -884 l0 -867 46 -87 c60 -113 129 -206 230
-306 l81 -81 -29 -39 c-64 -84 -196 -307 -273 -459 -123 -243 -295 -697 -360
-950 -10 -38 -22 -74 -27 -80 -4 -5 -8 288 -8 652 l0 660 45 17 c131 50 148
213 31 300 -39 30 -143 30 -182 0 -61 -45 -86 -106 -73 -178 10 -54 37 -87 97
-116 l52 -25 0 -660 c0 -362 -4 -655 -8 -650 -5 6 -14 35 -21 65 -22 92 -137
431 -205 604 -114 290 -268 585 -413 790 l-49 70 81 80 c106 106 175 199 235
319 l50 99 -1 771 c-1 832 -4 942 -31 961 -9 6 -85 31 -170 55 -84 24 -159 48
-165 53 -8 6 -13 33 -13 62 l0 51 719 0 719 0 6 -35z m1702 14 c3 -11 4 -38 2
-59 l-3 -39 -150 -41 c-273 -75 -249 -54 -879 -760 -187 -209 -350 -392 -364
-407 l-25 -27 35 -48 c19 -26 97 -140 174 -253 76 -113 188 -278 249 -367 60
-90 216 -319 345 -510 245 -362 323 -459 399 -498 25 -12 108 -42 184 -65
l137 -43 0 -59 0 -58 -539 0 -539 0 -43 77 c-74 136 -192 322 -602 947 l-399
608 25 27 c93 101 946 1042 1003 1106 127 145 164 201 164 255 0 41 -33 60
-159 90 -79 18 -101 27 -101 40 0 10 -3 37 -6 61 l-6 44 546 0 c547 0 547 0
552 -21z"/>
</g>
</svg>
